<svg width="189" height="28" viewBox="0 0 189 28" fill="none" xmlns="http://www.w3.org/2000/svg">
<rect x="9.5925" width="17.4922" height="7.8997" rx="3.94985" fill="#336DFF"/>
<rect width="8.46396" height="7.8997" rx="3.94985" fill="#336DFF"/>
<rect x="20.8778" y="9.02823" width="6.20691" height="7.8997" rx="3.10345" fill="#336DFF"/>
<rect y="9.02823" width="19.7493" height="7.8997" rx="3.94985" fill="#336DFF"/>
<rect x="17.4922" y="18.0565" width="9.59249" height="7.8997" rx="3.94985" fill="#336DFF"/>
<rect y="18.0565" width="16.3637" height="7.8997" rx="3.94985" fill="#336DFF"/>
<path d="M20.0847 21.3708C20.0847 25.6635 17.0456 27.9562 13.0713 27.9562C9.09705 27.9562 4.65524 24.5415 6.52548 15.2732C6.56541 15.3774 6.61281 15.4751 6.66619 15.5666C7.25126 16.5693 8.47921 15.7428 8.82938 14.636C9.96939 11.0325 12.9568 8.36743 16.1104 7.95616C14.2402 14.5415 20.0847 16.0049 20.0847 21.3708Z" fill="#C8D1EA"/>
<path d="M13.1807 26.9805C10.8628 26.9805 8.24644 24.8779 8.67621 19.8317C11.0397 22.1446 11.6844 15.6265 13.8331 14.7854C13.8331 15.6265 14.9074 21.3035 17.271 19.8317C18.3453 24.2472 15.6398 26.9805 13.1807 26.9805Z" fill="#336DFF"/>
<path d="M13.4245 21.1269C12.2165 22.5847 10.7889 26.0049 13.2598 26.0049C15.7306 26.0049 14.5226 22.9211 13.4245 21.1269Z" fill="white"/>
<path d="M52.36 21V7H54.96V21H52.36ZM41.82 21V7H44.42V21H41.82ZM42.9 15.28L42.92 12.84H53.62V15.28H42.9ZM65.0886 21V14.42L65.3686 15.72L58.6686 7H61.9286L66.8886 13.68L65.9686 13.66L70.6686 7H73.7086L67.5086 15.52L67.6886 14.26V21H65.0886ZM77.3864 21V7H84.3464C85.4264 7 86.3331 7.14 87.0664 7.42C87.7997 7.68667 88.3531 8.08 88.7264 8.6C89.0997 9.12 89.2864 9.75333 89.2864 10.5C89.2864 11.26 89.0597 11.9067 88.6064 12.44C88.1531 12.9733 87.4931 13.3533 86.6264 13.58L86.6864 13.18C87.2997 13.3133 87.8597 13.54 88.3664 13.86C88.8731 14.1667 89.2731 14.5733 89.5664 15.08C89.8731 15.5733 90.0264 16.16 90.0264 16.84C90.0264 17.6 89.8797 18.2467 89.5864 18.78C89.3064 19.3133 88.9131 19.74 88.4064 20.06C87.9131 20.38 87.3464 20.62 86.7064 20.78C86.0797 20.9267 85.4197 21 84.7264 21H77.3864ZM79.9264 18.66H84.7264C85.2731 18.66 85.7464 18.5933 86.1464 18.46C86.5464 18.3133 86.8531 18.1 87.0664 17.82C87.2931 17.5267 87.4064 17.1733 87.4064 16.76C87.4064 16.32 87.2731 15.9667 87.0064 15.7C86.7397 15.4333 86.3931 15.24 85.9664 15.12C85.5397 14.9867 85.0931 14.92 84.6264 14.92H79.9264V18.66ZM79.9264 12.68H84.4064C84.8331 12.68 85.2197 12.6133 85.5664 12.48C85.9131 12.3333 86.1797 12.1333 86.3664 11.88C86.5664 11.6267 86.6664 11.3267 86.6664 10.98C86.6664 10.4333 86.4397 10.0267 85.9864 9.76C85.5331 9.48 84.9397 9.34 84.2064 9.34H79.9264V12.68ZM94.6716 21V7H101.912C102.805 7 103.605 7.19333 104.312 7.58C105.018 7.95333 105.578 8.47333 105.992 9.14C106.418 9.80667 106.632 10.5667 106.632 11.42C106.632 12.2467 106.412 13.0067 105.972 13.7C105.532 14.38 104.945 14.92 104.212 15.32C103.478 15.72 102.665 15.92 101.772 15.92H97.2116V21H94.6716ZM104.212 21L99.9716 14.68L102.692 14.18L107.332 21.02L104.212 21ZM97.2116 13.66H101.652C102.078 13.66 102.465 13.5667 102.812 13.38C103.158 13.18 103.432 12.9133 103.632 12.58C103.845 12.2467 103.952 11.8733 103.952 11.46C103.952 11.0467 103.838 10.6867 103.612 10.38C103.385 10.06 103.078 9.80667 102.692 9.62C102.318 9.43333 101.892 9.34 101.412 9.34H97.2116V13.66ZM112.112 21V18.62H115.192V9.38H112.112V7H120.872V9.38H117.792V18.62H120.872V21H112.112ZM126.468 21V7H132.988C134.162 7 135.208 7.18 136.128 7.54C137.048 7.88667 137.828 8.38 138.468 9.02C139.108 9.66 139.588 10.4067 139.908 11.26C140.242 12.1 140.408 13.0133 140.408 14C140.408 15 140.242 15.9267 139.908 16.78C139.588 17.62 139.108 18.36 138.468 19C137.828 19.6267 137.048 20.12 136.128 20.48C135.208 20.8267 134.162 21 132.988 21H126.468ZM129.068 18.98L128.868 18.6H132.888C133.702 18.6 134.408 18.4867 135.008 18.26C135.622 18.02 136.128 17.6933 136.528 17.28C136.928 16.8667 137.222 16.3867 137.408 15.84C137.608 15.28 137.708 14.6667 137.708 14C137.708 13.3467 137.608 12.7467 137.408 12.2C137.222 11.64 136.922 11.1533 136.508 10.74C136.108 10.3133 135.608 9.98667 135.008 9.76C134.408 9.52 133.702 9.4 132.888 9.4H128.808L129.068 9.06V18.98ZM144.082 16.4V14.1H151.062V16.4H144.082ZM155.726 21V7H162.246C163.42 7 164.466 7.18 165.386 7.54C166.306 7.88667 167.086 8.38 167.726 9.02C168.366 9.66 168.846 10.4067 169.166 11.26C169.5 12.1 169.666 13.0133 169.666 14C169.666 15 169.5 15.9267 169.166 16.78C168.846 17.62 168.366 18.36 167.726 19C167.086 19.6267 166.306 20.12 165.386 20.48C164.466 20.8267 163.42 21 162.246 21H155.726ZM158.326 18.98L158.126 18.6H162.146C162.96 18.6 163.666 18.4867 164.266 18.26C164.88 18.02 165.386 17.6933 165.786 17.28C166.186 16.8667 166.48 16.3867 166.666 15.84C166.866 15.28 166.966 14.6667 166.966 14C166.966 13.3467 166.866 12.7467 166.666 12.2C166.48 11.64 166.18 11.1533 165.766 10.74C165.366 10.3133 164.866 9.98667 164.266 9.76C163.666 9.52 162.96 9.4 162.146 9.4H158.066L158.326 9.06V18.98ZM174.32 21V7H180.84C182.013 7 183.06 7.18 183.98 7.54C184.9 7.88667 185.68 8.38 186.32 9.02C186.96 9.66 187.44 10.4067 187.76 11.26C188.093 12.1 188.26 13.0133 188.26 14C188.26 15 188.093 15.9267 187.76 16.78C187.44 17.62 186.96 18.36 186.32 19C185.68 19.6267 184.9 20.12 183.98 20.48C183.06 20.8267 182.013 21 180.84 21H174.32ZM176.92 18.98L176.72 18.6H180.74C181.553 18.6 182.26 18.4867 182.86 18.26C183.473 18.02 183.98 17.6933 184.38 17.28C184.78 16.8667 185.073 16.3867 185.26 15.84C185.46 15.28 185.56 14.6667 185.56 14C185.56 13.3467 185.46 12.7467 185.26 12.2C185.073 11.64 184.773 11.1533 184.36 10.74C183.96 10.3133 183.46 9.98667 182.86 9.76C182.26 9.52 181.553 9.4 180.74 9.4H176.66L176.92 9.06V18.98Z" fill="#336DFF"/>
</svg>
